<svg fill="#FFFFFF" xmlns="http://www.w3.org/2000/svg"  viewBox="0 0 64 64" width="64px" height="64px"><path d="M 38.574219 6 L 37.4375 9.4746094 C 35.6415 9.9466094 33.990734 10.762516 32.552734 11.853516 L 33.191406 10.464844 L 31.654297 9.6289062 C 31.145297 9.3519063 30.514469 9.4425625 30.105469 9.8515625 L 27.263672 12.693359 L 28.916016 15.953125 L 34.664062 20.021484 C 35.784062 17.645484 38.199 16 41 16 C 44.866 16 48 19.134 48 23 C 48 25.943 46.182375 28.459141 43.609375 29.494141 L 47.78125 32.675781 L 48.806641 35.535156 L 50.345703 36.371094 C 50.854703 36.648094 51.485531 36.558437 51.894531 36.148438 L 54.734375 33.306641 L 53.082031 30.046875 C 53.987031 28.497875 54.600516 26.763156 54.853516 24.910156 L 55.384766 26.34375 L 57.0625 25.847656 C 57.6195 25.683656 58 25.17275 58 24.59375 L 58 20.574219 L 54.525391 19.4375 C 54.053391 17.6415 53.237484 15.990734 52.146484 14.552734 L 53.535156 15.193359 L 54.371094 13.654297 C 54.648094 13.145297 54.557437 12.514469 54.148438 12.105469 L 51.306641 9.265625 L 48.046875 10.917969 C 46.498875 10.012969 44.763156 9.3994844 42.910156 9.1464844 L 44.34375 8.6152344 L 43.847656 6.9375 C 43.682656 6.3805 43.17275 6 42.59375 6 L 38.574219 6 z M 23.146484 18 L 21.634766 22.617188 C 19.392766 23.252188 17.353906 24.358078 15.628906 25.830078 L 16.814453 23.253906 L 15.005859 22.269531 C 14.406859 21.943531 13.663641 22.051203 13.181641 22.533203 L 9.8398438 25.876953 L 12.033203 30.205078 C 10.936203 32.165078 10.249453 34.378328 10.064453 36.736328 L 9.0761719 34.068359 L 7.1015625 34.652344 C 6.4485625 34.844344 6 35.444953 6 36.126953 L 6 40.853516 L 10.617188 42.365234 C 11.252187 44.607234 12.358078 46.646094 13.830078 48.371094 L 11.253906 47.185547 L 10.269531 48.994141 C 9.9435312 49.593141 10.051203 50.336359 10.533203 50.818359 L 13.876953 54.160156 L 18.205078 51.966797 C 20.165078 53.063797 22.378328 53.751547 24.736328 53.935547 L 22.068359 54.923828 L 22.652344 56.898438 C 22.844344 57.551438 23.444953 58 24.126953 58 L 28.853516 58 L 30.365234 53.382812 C 32.607234 52.747813 34.647094 51.642875 36.371094 50.171875 L 35.185547 52.748047 L 36.994141 53.730469 C 37.593141 54.056469 38.336359 53.948797 38.818359 53.466797 L 42.160156 50.125 L 39.966797 45.796875 C 41.063797 43.836875 41.7525 41.621672 41.9375 39.263672 L 42.923828 41.933594 L 44.898438 41.349609 C 45.550438 41.156609 46 40.555047 46 39.873047 L 46 35.146484 L 41.382812 33.634766 C 40.747813 31.393766 39.642875 29.353906 38.171875 27.628906 L 40.748047 28.814453 L 41.730469 27.005859 C 42.056469 26.406859 41.948797 25.663641 41.466797 25.181641 L 38.125 21.839844 L 33.796875 24.033203 C 31.836875 22.936203 29.621672 22.2475 27.263672 22.0625 L 29.933594 21.076172 L 29.349609 19.101562 C 29.156609 18.449563 28.555047 18 27.873047 18 L 23.146484 18 z M 26 29 C 30.971 29 35 33.029 35 38 C 35 42.971 30.971 47 26 47 C 21.029 47 17 42.971 17 38 C 17 33.029 21.029 29 26 29 z M 26 33 C 23.239 33 21 35.239 21 38 C 21 40.761 23.239 43 26 43 C 28.761 43 31 40.761 31 38 C 31 35.239 28.761 33 26 33 z"/></svg>